<svg width="1600" height="900" viewBox="0 0 1600 900" fill="none" xmlns="http://www.w3.org/2000/svg">
  <defs>
    <linearGradient id="g1" x1="0" y1="0" x2="1600" y2="900" gradientUnits="userSpaceOnUse">
      <stop stop-color="#1E293B"/>
      <stop offset="1" stop-color="#0F172A"/>
    </linearGradient>
    <radialGradient id="g2" cx="0" cy="0" r="1" gradientUnits="userSpaceOnUse" gradientTransform="translate(240 220) rotate(30) scale(700 420)">
      <stop stop-color="#334155" stop-opacity="0.8"/>
      <stop offset="1" stop-color="#334155" stop-opacity="0"/>
    </radialGradient>
    <radialGradient id="g3" cx="0" cy="0" r="1" gradientUnits="userSpaceOnUse" gradientTransform="translate(1280 690) rotate(30) scale(680 400)">
      <stop stop-color="#475569" stop-opacity="0.65"/>
      <stop offset="1" stop-color="#475569" stop-opacity="0"/>
    </radialGradient>
  </defs>
  <rect width="1600" height="900" fill="url(#g1)"/>
  <rect width="1600" height="900" fill="url(#g2)"/>
  <rect width="1600" height="900" fill="url(#g3)"/>
  <g opacity="0.25" stroke="#94A3B8" stroke-width="1">
    <path d="M0 120H1600"/>
    <path d="M0 240H1600"/>
    <path d="M0 360H1600"/>
    <path d="M0 480H1600"/>
    <path d="M0 600H1600"/>
    <path d="M0 720H1600"/>
    <path d="M0 840H1600"/>
    <path d="M160 0V900"/>
    <path d="M320 0V900"/>
    <path d="M480 0V900"/>
    <path d="M640 0V900"/>
    <path d="M800 0V900"/>
    <path d="M960 0V900"/>
    <path d="M1120 0V900"/>
    <path d="M1280 0V900"/>
    <path d="M1440 0V900"/>
  </g>
</svg>
